# xmcd
#
# Track frame offsets:
#	150
#	15520
#	29907
#	48285
#	61920
#	77495
#	96547
#	110590
#	132815
#	152720
#
# Disc length: 2078 seconds
#
# Revision: 0
# Processed by: cddbd v1.5.1PL0 Copyright (c) Steve Scherf et al.
# Submitted via: EasyCDDAExtractor 8.0.1.1
#
DISCID=7d081c0a
DTITLE=Brigitte London - Can't Steal My Fire
DYEAR=1995
DGENRE=Country
TTITLE0=never gonna find another woman like me
TTITLE1=feels so right
TTITLE2=replace my pain
TTITLE3=still reaching out
TTITLE4=safe again
TTITLE5=do ya think you can handle me
TTITLE6=what did i get from you
TTITLE7=somewhere there's a woman
TTITLE8=devil in the night
TTITLE9=can't steal my fire
EXTD=
EXTT0=
EXTT1=
EXTT2=
EXTT3=
EXTT4=
EXTT5=
EXTT6=
EXTT7=
EXTT8=
EXTT9=
PLAYORDER=
